G75*
G70*
%OFA0B0*%
%FSLAX24Y24*%
%IPPOS*%
%LPD*%
%AMOC8*
5,1,8,0,0,1.08239X$1,22.5*
%
%ADD10C,0.0197*%
%ADD11C,0.0040*%
%ADD12R,0.0276X0.0354*%
%ADD13R,0.0354X0.0276*%
%ADD14R,0.0315X0.0315*%
%ADD15R,0.0787X0.0472*%
%ADD16C,0.0433*%
%ADD17R,0.0433X0.0394*%
%ADD18OC8,0.0850*%
%ADD19R,0.0157X0.0354*%
%ADD20R,0.0354X0.0157*%
%ADD21C,0.0320*%
%ADD22C,0.0317*%
D10*
X021390Y048387D02*
X021390Y049430D01*
X022433Y049430D01*
X022433Y048387D01*
X021390Y048387D01*
X021390Y048553D02*
X022433Y048553D01*
X022433Y048748D02*
X021390Y048748D01*
X021390Y048944D02*
X022433Y048944D01*
X022433Y049139D02*
X021390Y049139D01*
X021390Y049334D02*
X022433Y049334D01*
D11*
X022718Y049361D02*
X022718Y049440D01*
X022915Y049440D01*
X022915Y049361D01*
X022718Y049361D01*
X022718Y049399D02*
X022915Y049399D01*
X022915Y049437D02*
X022718Y049437D01*
X022718Y049558D02*
X022915Y049558D01*
X022915Y049637D01*
X022738Y049637D01*
X022718Y049617D01*
X022718Y049558D01*
X022718Y049591D02*
X022915Y049591D01*
X022915Y049630D02*
X022731Y049630D01*
X022640Y049735D02*
X022620Y049716D01*
X022561Y049716D01*
X022561Y049913D01*
X022640Y049913D01*
X022640Y049735D01*
X022640Y049745D02*
X022561Y049745D01*
X022561Y049784D02*
X022640Y049784D01*
X022640Y049822D02*
X022561Y049822D01*
X022561Y049861D02*
X022640Y049861D01*
X022640Y049899D02*
X022561Y049899D01*
X022443Y049899D02*
X022364Y049899D01*
X022364Y049913D02*
X022443Y049913D01*
X022443Y049716D01*
X022364Y049716D01*
X022364Y049913D01*
X022364Y049861D02*
X022443Y049861D01*
X022443Y049822D02*
X022364Y049822D01*
X022364Y049784D02*
X022443Y049784D01*
X022443Y049745D02*
X022364Y049745D01*
X022246Y049745D02*
X022167Y049745D01*
X022167Y049716D02*
X022167Y049913D01*
X022246Y049913D01*
X022246Y049716D01*
X022167Y049716D01*
X022167Y049784D02*
X022246Y049784D01*
X022246Y049822D02*
X022167Y049822D01*
X022167Y049861D02*
X022246Y049861D01*
X022246Y049899D02*
X022167Y049899D01*
X022049Y049899D02*
X021970Y049899D01*
X021970Y049913D02*
X022049Y049913D01*
X022049Y049716D01*
X021970Y049716D01*
X021970Y049913D01*
X021970Y049861D02*
X022049Y049861D01*
X022049Y049822D02*
X021970Y049822D01*
X021970Y049784D02*
X022049Y049784D01*
X022049Y049745D02*
X021970Y049745D01*
X021852Y049745D02*
X021773Y049745D01*
X021773Y049716D02*
X021773Y049913D01*
X021852Y049913D01*
X021852Y049716D01*
X021773Y049716D01*
X021773Y049784D02*
X021852Y049784D01*
X021852Y049822D02*
X021773Y049822D01*
X021773Y049861D02*
X021852Y049861D01*
X021852Y049899D02*
X021773Y049899D01*
X021655Y049899D02*
X021577Y049899D01*
X021577Y049913D02*
X021655Y049913D01*
X021655Y049716D01*
X021577Y049716D01*
X021577Y049913D01*
X021577Y049861D02*
X021655Y049861D01*
X021655Y049822D02*
X021577Y049822D01*
X021577Y049784D02*
X021655Y049784D01*
X021655Y049745D02*
X021577Y049745D01*
X021458Y049745D02*
X021380Y049745D01*
X021380Y049716D02*
X021380Y049913D01*
X021458Y049913D01*
X021458Y049716D01*
X021380Y049716D01*
X021380Y049784D02*
X021458Y049784D01*
X021458Y049822D02*
X021380Y049822D01*
X021380Y049861D02*
X021458Y049861D01*
X021458Y049899D02*
X021380Y049899D01*
X021262Y049899D02*
X021183Y049899D01*
X021183Y049913D02*
X021262Y049913D01*
X021262Y049716D01*
X021203Y049716D01*
X021183Y049735D01*
X021183Y049913D01*
X021183Y049861D02*
X021262Y049861D01*
X021262Y049822D02*
X021183Y049822D01*
X021183Y049784D02*
X021262Y049784D01*
X021262Y049745D02*
X021183Y049745D01*
X021084Y049637D02*
X021104Y049617D01*
X021104Y049558D01*
X020907Y049558D01*
X020907Y049637D01*
X021084Y049637D01*
X021092Y049630D02*
X020907Y049630D01*
X020907Y049591D02*
X021104Y049591D01*
X021104Y049440D02*
X021104Y049361D01*
X020907Y049361D01*
X020907Y049440D01*
X021104Y049440D01*
X021104Y049437D02*
X020907Y049437D01*
X020907Y049399D02*
X021104Y049399D01*
X021104Y049243D02*
X021104Y049165D01*
X020907Y049165D01*
X020907Y049243D01*
X021104Y049243D01*
X021104Y049206D02*
X020907Y049206D01*
X020907Y049168D02*
X021104Y049168D01*
X021104Y049046D02*
X021104Y048968D01*
X020907Y048968D01*
X020907Y049046D01*
X021104Y049046D01*
X021104Y049014D02*
X020907Y049014D01*
X020907Y048975D02*
X021104Y048975D01*
X021104Y048850D02*
X021104Y048771D01*
X020907Y048771D01*
X020907Y048850D01*
X021104Y048850D01*
X021104Y048821D02*
X020907Y048821D01*
X020907Y048783D02*
X021104Y048783D01*
X021104Y048653D02*
X021104Y048574D01*
X020907Y048574D01*
X020907Y048653D01*
X021104Y048653D01*
X021104Y048629D02*
X020907Y048629D01*
X020907Y048590D02*
X021104Y048590D01*
X021104Y048456D02*
X021104Y048377D01*
X020907Y048377D01*
X020907Y048456D01*
X021104Y048456D01*
X021104Y048436D02*
X020907Y048436D01*
X020907Y048398D02*
X021104Y048398D01*
X021104Y048259D02*
X020907Y048259D01*
X020907Y048180D01*
X021084Y048180D01*
X021104Y048200D01*
X021104Y048259D01*
X021104Y048244D02*
X020907Y048244D01*
X020907Y048205D02*
X021104Y048205D01*
X021203Y048102D02*
X021262Y048102D01*
X021262Y047905D01*
X021183Y047905D01*
X021183Y048082D01*
X021203Y048102D01*
X021191Y048090D02*
X021262Y048090D01*
X021262Y048051D02*
X021183Y048051D01*
X021183Y048013D02*
X021262Y048013D01*
X021262Y047974D02*
X021183Y047974D01*
X021183Y047936D02*
X021262Y047936D01*
X021380Y047936D02*
X021458Y047936D01*
X021458Y047905D02*
X021380Y047905D01*
X021380Y048102D01*
X021458Y048102D01*
X021458Y047905D01*
X021458Y047974D02*
X021380Y047974D01*
X021380Y048013D02*
X021458Y048013D01*
X021458Y048051D02*
X021380Y048051D01*
X021380Y048090D02*
X021458Y048090D01*
X021577Y048090D02*
X021655Y048090D01*
X021655Y048102D02*
X021655Y047905D01*
X021577Y047905D01*
X021577Y048102D01*
X021655Y048102D01*
X021655Y048051D02*
X021577Y048051D01*
X021577Y048013D02*
X021655Y048013D01*
X021655Y047974D02*
X021577Y047974D01*
X021577Y047936D02*
X021655Y047936D01*
X021773Y047936D02*
X021852Y047936D01*
X021852Y047905D02*
X021773Y047905D01*
X021773Y048102D01*
X021852Y048102D01*
X021852Y047905D01*
X021852Y047974D02*
X021773Y047974D01*
X021773Y048013D02*
X021852Y048013D01*
X021852Y048051D02*
X021773Y048051D01*
X021773Y048090D02*
X021852Y048090D01*
X021970Y048090D02*
X022049Y048090D01*
X022049Y048102D02*
X022049Y047905D01*
X021970Y047905D01*
X021970Y048102D01*
X022049Y048102D01*
X022049Y048051D02*
X021970Y048051D01*
X021970Y048013D02*
X022049Y048013D01*
X022049Y047974D02*
X021970Y047974D01*
X021970Y047936D02*
X022049Y047936D01*
X022167Y047936D02*
X022246Y047936D01*
X022246Y047905D02*
X022167Y047905D01*
X022167Y048102D01*
X022246Y048102D01*
X022246Y047905D01*
X022246Y047974D02*
X022167Y047974D01*
X022167Y048013D02*
X022246Y048013D01*
X022246Y048051D02*
X022167Y048051D01*
X022167Y048090D02*
X022246Y048090D01*
X022364Y048090D02*
X022443Y048090D01*
X022443Y048102D02*
X022443Y047905D01*
X022364Y047905D01*
X022364Y048102D01*
X022443Y048102D01*
X022443Y048051D02*
X022364Y048051D01*
X022364Y048013D02*
X022443Y048013D01*
X022443Y047974D02*
X022364Y047974D01*
X022364Y047936D02*
X022443Y047936D01*
X022561Y047936D02*
X022640Y047936D01*
X022640Y047905D02*
X022561Y047905D01*
X022561Y048102D01*
X022620Y048102D01*
X022640Y048082D01*
X022640Y047905D01*
X022640Y047974D02*
X022561Y047974D01*
X022561Y048013D02*
X022640Y048013D01*
X022640Y048051D02*
X022561Y048051D01*
X022561Y048090D02*
X022632Y048090D01*
X022738Y048180D02*
X022718Y048200D01*
X022718Y048259D01*
X022915Y048259D01*
X022915Y048180D01*
X022738Y048180D01*
X022718Y048205D02*
X022915Y048205D01*
X022915Y048244D02*
X022718Y048244D01*
X022718Y048377D02*
X022718Y048456D01*
X022915Y048456D01*
X022915Y048377D01*
X022718Y048377D01*
X022718Y048398D02*
X022915Y048398D01*
X022915Y048436D02*
X022718Y048436D01*
X022718Y048574D02*
X022718Y048653D01*
X022915Y048653D01*
X022915Y048574D01*
X022718Y048574D01*
X022718Y048590D02*
X022915Y048590D01*
X022915Y048629D02*
X022718Y048629D01*
X022718Y048771D02*
X022718Y048850D01*
X022915Y048850D01*
X022915Y048771D01*
X022718Y048771D01*
X022718Y048783D02*
X022915Y048783D01*
X022915Y048821D02*
X022718Y048821D01*
X022718Y048968D02*
X022718Y049046D01*
X022915Y049046D01*
X022915Y048968D01*
X022718Y048968D01*
X022718Y048975D02*
X022915Y048975D01*
X022915Y049014D02*
X022718Y049014D01*
X022718Y049165D02*
X022718Y049243D01*
X022915Y049243D01*
X022915Y049165D01*
X022718Y049165D01*
X022718Y049168D02*
X022915Y049168D01*
X022915Y049206D02*
X022718Y049206D01*
D12*
X023033Y047157D03*
X023545Y047157D03*
X023541Y046546D03*
X023029Y046546D03*
X025317Y047865D03*
X025829Y047865D03*
X026931Y048731D03*
X027443Y048731D03*
X027443Y049243D03*
X027443Y049755D03*
X026931Y049755D03*
X026931Y049243D03*
X026777Y046531D03*
X026266Y046531D03*
X020084Y049582D03*
X019573Y049582D03*
D13*
X019589Y046458D03*
X019589Y046970D03*
X020135Y046742D03*
X020135Y047253D03*
X020730Y046980D03*
X020730Y046468D03*
X021321Y046468D03*
X021321Y046980D03*
X024769Y049005D03*
X024769Y049517D03*
X028744Y049562D03*
X028744Y049050D03*
D14*
X024903Y047157D03*
X024313Y047157D03*
X024313Y046527D03*
X024903Y046527D03*
D15*
X018604Y046724D03*
X018604Y047708D03*
X018604Y048495D03*
X018604Y049480D03*
D16*
X017580Y048987D03*
X017580Y047216D03*
D17*
X028812Y047582D03*
X028812Y048251D03*
D18*
X030258Y048619D03*
X030258Y047558D03*
X030258Y046448D03*
X028777Y046448D03*
X030258Y049729D03*
D19*
X025876Y049676D03*
X025364Y049676D03*
X025364Y048810D03*
X025620Y048810D03*
X025876Y048810D03*
D20*
X026384Y048137D03*
X026384Y047881D03*
X026384Y047625D03*
X027250Y047625D03*
X027250Y048137D03*
D21*
X027864Y047629D03*
X027990Y048653D03*
X028124Y049574D03*
X025888Y048338D03*
X024903Y047944D03*
X023911Y047637D03*
X023423Y048724D03*
X023588Y049204D03*
X021832Y046810D03*
X020632Y048043D03*
X020541Y048991D03*
X020080Y049003D03*
X019573Y049015D03*
D22*
X020021Y047747D03*
X019588Y047550D03*
X020179Y046251D03*
M02*
