G75*
G70*
%OFA0B0*%
%FSLAX24Y24*%
%IPPOS*%
%LPD*%
%AMOC8*
5,1,8,0,0,1.08239X$1,22.5*
%
%ADD10C,0.0000*%
%ADD11C,0.0060*%
%ADD12C,0.0160*%
D10*
X016478Y045818D02*
X016478Y050385D01*
X030891Y050385D01*
X030891Y045818D01*
X016478Y045818D01*
X017363Y047216D02*
X017365Y047245D01*
X017371Y047273D01*
X017380Y047301D01*
X017393Y047327D01*
X017410Y047350D01*
X017429Y047372D01*
X017451Y047391D01*
X017476Y047406D01*
X017502Y047419D01*
X017530Y047427D01*
X017558Y047432D01*
X017587Y047433D01*
X017616Y047430D01*
X017644Y047423D01*
X017671Y047413D01*
X017697Y047399D01*
X017720Y047382D01*
X017741Y047362D01*
X017759Y047339D01*
X017774Y047314D01*
X017785Y047287D01*
X017793Y047259D01*
X017797Y047230D01*
X017797Y047202D01*
X017793Y047173D01*
X017785Y047145D01*
X017774Y047118D01*
X017759Y047093D01*
X017741Y047070D01*
X017720Y047050D01*
X017697Y047033D01*
X017671Y047019D01*
X017644Y047009D01*
X017616Y047002D01*
X017587Y046999D01*
X017558Y047000D01*
X017530Y047005D01*
X017502Y047013D01*
X017476Y047026D01*
X017451Y047041D01*
X017429Y047060D01*
X017410Y047082D01*
X017393Y047105D01*
X017380Y047131D01*
X017371Y047159D01*
X017365Y047187D01*
X017363Y047216D01*
X017363Y048987D02*
X017365Y049016D01*
X017371Y049044D01*
X017380Y049072D01*
X017393Y049098D01*
X017410Y049121D01*
X017429Y049143D01*
X017451Y049162D01*
X017476Y049177D01*
X017502Y049190D01*
X017530Y049198D01*
X017558Y049203D01*
X017587Y049204D01*
X017616Y049201D01*
X017644Y049194D01*
X017671Y049184D01*
X017697Y049170D01*
X017720Y049153D01*
X017741Y049133D01*
X017759Y049110D01*
X017774Y049085D01*
X017785Y049058D01*
X017793Y049030D01*
X017797Y049001D01*
X017797Y048973D01*
X017793Y048944D01*
X017785Y048916D01*
X017774Y048889D01*
X017759Y048864D01*
X017741Y048841D01*
X017720Y048821D01*
X017697Y048804D01*
X017671Y048790D01*
X017644Y048780D01*
X017616Y048773D01*
X017587Y048770D01*
X017558Y048771D01*
X017530Y048776D01*
X017502Y048784D01*
X017476Y048797D01*
X017451Y048812D01*
X017429Y048831D01*
X017410Y048853D01*
X017393Y048876D01*
X017380Y048902D01*
X017371Y048930D01*
X017365Y048958D01*
X017363Y048987D01*
D11*
X021373Y049688D02*
X021416Y049688D01*
X021416Y049731D01*
X021373Y049731D01*
X021373Y049688D01*
X021537Y049688D02*
X021667Y049688D01*
X021711Y049731D01*
X021711Y049818D01*
X021667Y049862D01*
X021537Y049862D01*
X021832Y049818D02*
X021832Y049688D01*
X021832Y049818D02*
X021875Y049862D01*
X022005Y049862D01*
X022005Y049688D01*
X022115Y049688D02*
X022202Y049688D01*
X022159Y049688D02*
X022159Y049948D01*
X022202Y049948D02*
X022115Y049948D01*
X022618Y049818D02*
X022618Y049775D01*
X022791Y049775D01*
X022791Y049818D02*
X022748Y049862D01*
X022661Y049862D01*
X022618Y049818D01*
X022661Y049688D02*
X022748Y049688D01*
X022791Y049731D01*
X022791Y049818D01*
X022901Y049688D02*
X022988Y049688D01*
X022944Y049688D02*
X022944Y049948D01*
X022988Y049948D01*
X023109Y049862D02*
X023239Y049862D01*
X023282Y049818D01*
X023282Y049731D01*
X023239Y049688D01*
X023109Y049688D01*
X023109Y049645D02*
X023109Y049862D01*
X023109Y049645D02*
X023152Y049601D01*
X023196Y049601D01*
X023403Y049731D02*
X023403Y049818D01*
X023447Y049862D01*
X023534Y049862D01*
X023577Y049818D01*
X023577Y049731D01*
X023534Y049688D01*
X023447Y049688D01*
X023403Y049731D01*
X023698Y049731D02*
X023698Y049818D01*
X023741Y049862D01*
X023828Y049862D01*
X023872Y049818D01*
X023872Y049731D01*
X023828Y049688D01*
X023741Y049688D01*
X023698Y049731D01*
X023993Y049731D02*
X023993Y049818D01*
X024080Y049818D01*
X024166Y049731D02*
X024123Y049688D01*
X024036Y049688D01*
X023993Y049731D01*
X024166Y049731D02*
X024166Y049905D01*
X024123Y049948D01*
X024036Y049948D01*
X023993Y049905D01*
X024571Y049731D02*
X024614Y049731D01*
X024614Y049688D01*
X024571Y049688D01*
X024571Y049731D01*
X024571Y049688D02*
X024657Y049601D01*
X024779Y049688D02*
X024952Y049688D01*
X024779Y049862D01*
X024779Y049905D01*
X024822Y049948D01*
X024909Y049948D01*
X024952Y049905D01*
X025160Y049948D02*
X025160Y049688D01*
X025247Y049688D02*
X025073Y049688D01*
X025247Y049862D02*
X025160Y049948D01*
X025368Y049905D02*
X025541Y049731D01*
X025498Y049688D01*
X025411Y049688D01*
X025368Y049731D01*
X025368Y049905D01*
X025411Y049948D01*
X025498Y049948D01*
X025541Y049905D01*
X025541Y049731D01*
X025662Y049688D02*
X025836Y049688D01*
X025662Y049862D01*
X025662Y049905D01*
X025706Y049948D01*
X025793Y049948D01*
X025836Y049905D01*
X026240Y049862D02*
X026327Y049948D01*
X026240Y049862D02*
X026240Y049775D01*
X026327Y049688D01*
X026448Y049731D02*
X026492Y049688D01*
X026578Y049688D01*
X026622Y049731D01*
X026622Y049905D01*
X026578Y049948D01*
X026492Y049948D01*
X026448Y049905D01*
X026731Y049948D02*
X026818Y049862D01*
X026818Y049775D01*
X026731Y049688D01*
D12*
X027257Y047106D02*
X027651Y047106D01*
X027257Y047106D02*
X027257Y046318D01*
X026962Y046318D02*
X026962Y046810D01*
X026960Y046843D01*
X026955Y046876D01*
X026945Y046907D01*
X026933Y046938D01*
X026917Y046967D01*
X026898Y046994D01*
X026876Y047019D01*
X026851Y047041D01*
X026824Y047060D01*
X026795Y047076D01*
X026764Y047088D01*
X026733Y047098D01*
X026700Y047103D01*
X026667Y047105D01*
X026634Y047103D01*
X026601Y047098D01*
X026570Y047088D01*
X026539Y047076D01*
X026510Y047060D01*
X026483Y047041D01*
X026458Y047019D01*
X026436Y046994D01*
X026417Y046967D01*
X026401Y046938D01*
X026389Y046907D01*
X026379Y046876D01*
X026374Y046843D01*
X026372Y046810D01*
X026371Y046810D02*
X026371Y046318D01*
X026076Y046318D02*
X025879Y046318D01*
X025840Y046320D01*
X025802Y046326D01*
X025765Y046335D01*
X025728Y046348D01*
X025693Y046365D01*
X025660Y046384D01*
X025629Y046407D01*
X025600Y046433D01*
X025574Y046462D01*
X025551Y046493D01*
X025532Y046526D01*
X025515Y046561D01*
X025502Y046598D01*
X025493Y046635D01*
X025487Y046673D01*
X025485Y046712D01*
X025487Y046751D01*
X025493Y046789D01*
X025502Y046826D01*
X025515Y046863D01*
X025532Y046898D01*
X025551Y046931D01*
X025574Y046962D01*
X025600Y046991D01*
X025629Y047017D01*
X025660Y047040D01*
X025693Y047059D01*
X025728Y047076D01*
X025765Y047089D01*
X025802Y047098D01*
X025840Y047104D01*
X025879Y047106D01*
X026076Y047106D01*
X025289Y047106D02*
X024993Y047106D01*
X024993Y047105D02*
X024963Y047103D01*
X024934Y047098D01*
X024906Y047089D01*
X024879Y047077D01*
X024853Y047061D01*
X024830Y047043D01*
X024809Y047022D01*
X024791Y046999D01*
X024775Y046973D01*
X024763Y046946D01*
X024754Y046918D01*
X024749Y046889D01*
X024747Y046859D01*
X024749Y046829D01*
X024754Y046800D01*
X024763Y046772D01*
X024775Y046745D01*
X024791Y046719D01*
X024809Y046696D01*
X024830Y046675D01*
X024853Y046657D01*
X024879Y046641D01*
X024906Y046629D01*
X024934Y046620D01*
X024963Y046615D01*
X024993Y046613D01*
X025190Y046613D01*
X024895Y046613D02*
X024865Y046602D01*
X024837Y046587D01*
X024810Y046569D01*
X024786Y046549D01*
X024764Y046526D01*
X024745Y046500D01*
X024728Y046472D01*
X024715Y046443D01*
X024706Y046413D01*
X024700Y046381D01*
X024697Y046350D01*
X024698Y046318D01*
X023603Y046712D02*
X023605Y046752D01*
X023611Y046791D01*
X023620Y046830D01*
X023634Y046867D01*
X023651Y046903D01*
X023671Y046938D01*
X023695Y046970D01*
X023722Y046999D01*
X023751Y047026D01*
X023783Y047050D01*
X023818Y047070D01*
X023854Y047087D01*
X023891Y047101D01*
X023930Y047110D01*
X023969Y047116D01*
X024009Y047118D01*
X024049Y047116D01*
X024088Y047110D01*
X024127Y047101D01*
X024164Y047087D01*
X024200Y047070D01*
X024235Y047050D01*
X024267Y047026D01*
X024296Y046999D01*
X024323Y046970D01*
X024347Y046938D01*
X024367Y046903D01*
X024384Y046867D01*
X024398Y046830D01*
X024407Y046791D01*
X024413Y046752D01*
X024415Y046712D01*
X024413Y046672D01*
X024407Y046633D01*
X024398Y046594D01*
X024384Y046557D01*
X024367Y046521D01*
X024347Y046486D01*
X024323Y046454D01*
X024296Y046425D01*
X024267Y046398D01*
X024235Y046374D01*
X024200Y046354D01*
X024164Y046337D01*
X024127Y046323D01*
X024088Y046314D01*
X024049Y046308D01*
X024009Y046306D01*
X023969Y046308D01*
X023930Y046314D01*
X023891Y046323D01*
X023854Y046337D01*
X023818Y046354D01*
X023783Y046374D01*
X023751Y046398D01*
X023722Y046425D01*
X023695Y046454D01*
X023671Y046486D01*
X023651Y046521D01*
X023634Y046557D01*
X023620Y046594D01*
X023611Y046633D01*
X023605Y046672D01*
X023603Y046712D01*
X023320Y047106D02*
X023320Y046318D01*
X023025Y046318D02*
X022828Y046318D01*
X022789Y046320D01*
X022751Y046326D01*
X022714Y046335D01*
X022677Y046348D01*
X022642Y046365D01*
X022609Y046384D01*
X022578Y046407D01*
X022549Y046433D01*
X022523Y046462D01*
X022500Y046493D01*
X022481Y046526D01*
X022464Y046561D01*
X022451Y046598D01*
X022442Y046635D01*
X022436Y046673D01*
X022434Y046712D01*
X022436Y046751D01*
X022442Y046789D01*
X022451Y046826D01*
X022464Y046863D01*
X022481Y046898D01*
X022500Y046931D01*
X022523Y046962D01*
X022549Y046991D01*
X022578Y047017D01*
X022609Y047040D01*
X022642Y047059D01*
X022677Y047076D01*
X022714Y047089D01*
X022751Y047098D01*
X022789Y047104D01*
X022828Y047106D01*
X023025Y047106D01*
X027553Y046318D02*
X027651Y046318D01*
X027690Y046320D01*
X027728Y046326D01*
X027765Y046335D01*
X027802Y046348D01*
X027837Y046365D01*
X027870Y046384D01*
X027901Y046407D01*
X027930Y046433D01*
X027956Y046462D01*
X027979Y046493D01*
X027998Y046526D01*
X028015Y046561D01*
X028028Y046598D01*
X028037Y046635D01*
X028043Y046673D01*
X028045Y046712D01*
X028043Y046751D01*
X028037Y046789D01*
X028028Y046826D01*
X028015Y046863D01*
X027998Y046898D01*
X027979Y046931D01*
X027956Y046962D01*
X027930Y046991D01*
X027901Y047017D01*
X027870Y047040D01*
X027837Y047059D01*
X027802Y047076D01*
X027765Y047089D01*
X027728Y047098D01*
X027690Y047104D01*
X027651Y047106D01*
M02*
