%
M48
M72
T01C0.0157
T02C0.0160
T03C0.0400
T04C0.0433
%
T01
X20179Y46251
X19588Y47550
X20021Y47747
T02
X20632Y48043
X20541Y48991
X20080Y49003
X19573Y49015
X21832Y46810
X23911Y47637
X24903Y47944
X25888Y48338
X27864Y47629
X27990Y48653
X28124Y49574
X23588Y49204
X23423Y48724
T03
X28777Y46448
X30258Y46448
X30258Y47558
X30258Y48619
X30258Y49729
T04
X17580Y48987
X17580Y47216
M30
